<?xml version="1.0" encoding="UTF-8" standalone="no"?>
<!-- Created with Inkscape (http://www.inkscape.org/) -->

<svg
   width="210mm"
   height="297mm"
   viewBox="0 0 210 297"
   version="1.1"
   id="svg5"
   xml:space="preserve"
   inkscape:version="1.2.2 (732a01da63, 2022-12-09)"
   sodipodi:docname="jevilOutline.svg"
   xmlns:inkscape="http://www.inkscape.org/namespaces/inkscape"
   xmlns:sodipodi="http://sodipodi.sourceforge.net/DTD/sodipodi-0.dtd"
   xmlns="http://www.w3.org/2000/svg"
   xmlns:svg="http://www.w3.org/2000/svg"><sodipodi:namedview
     id="namedview7"
     pagecolor="#505050"
     bordercolor="#ffffff"
     borderopacity="1"
     inkscape:showpageshadow="0"
     inkscape:pageopacity="0"
     inkscape:pagecheckerboard="1"
     inkscape:deskcolor="#505050"
     inkscape:document-units="mm"
     showgrid="false"
     inkscape:zoom="0.73851712"
     inkscape:cx="135.40648"
     inkscape:cy="562.61391"
     inkscape:window-width="1920"
     inkscape:window-height="1010"
     inkscape:window-x="-6"
     inkscape:window-y="-6"
     inkscape:window-maximized="1"
     inkscape:current-layer="layer1" /><defs
     id="defs2" /><g
     inkscape:label="Layer 1"
     inkscape:groupmode="layer"
     id="layer1"><path
       style="fill:#000000;stroke-width:0.264583"
       d="m 120.36883,249.2081 v -2.11667 h -8.46666 -8.46667 v -2.11666 -2.11667 h -6.349998 -6.35 v -10.58333 -10.58333 h -2.116666 -2.116667 v -2.11667 -2.11667 h -6.349999 -6.35 v 2.11667 2.11667 h -2.116667 -2.116666 v 2.11666 2.11667 H 67.45217 65.335504 v 2.11667 2.11666 h -2.116667 -2.116666 v 2.11667 2.11666 h -2.116667 -2.116667 v 2.11667 2.11667 h -6.349999 -6.35 v -2.11667 -2.11667 h -2.116666 -2.116667 v -2.11666 -2.11667 h -2.116667 -2.116666 v -2.11666 -2.11667 h -2.116667 -2.116666 v -2.11667 -2.11666 h -2.116667 -2.116666 v -2.11667 -2.11667 h -2.116667 -2.116667 v -2.11666 -2.11667 h -2.116666 -2.116667 v -4.23333 -4.23334 h 2.116667 2.116666 v -2.11666 -2.11667 h 8.466667 8.466666 v 2.11667 2.11666 h 2.116667 2.116666 v 2.11667 2.11667 h 2.116667 2.116666 v 2.11666 2.11667 h 2.116667 2.116666 v -4.23333 -4.23334 h -2.116666 -2.116667 v -2.11666 -2.11667 H 46.285505 44.168838 V 189.94144 179.3581 h -6.35 -6.349999 v -2.11666 -2.11667 h -4.233333 -4.233334 v -2.11667 -2.11666 h -4.233333 -4.233333 v -2.11667 -2.11667 H 10.302173 6.06884 v -2.11666 -2.11667 h -8.4666663 -8.4666667 v -2.11666 -2.11667 h -2.116666 -2.116667 v -2.11667 -2.11666 h -2.116666 -2.116667 v -2.11667 -2.11667 h -2.116666 -2.116667 v -6.35 -6.35 h 2.116667 2.116666 v -2.11666 -2.11667 h 4.233333 4.233333 v 2.11667 2.11666 h 4.2333336 4.2333331 v 2.11667 2.11667 h 2.11666661 2.11666659 v -4.23334 -4.23333 H 6.06884 10.302173 v 2.11667 2.11666 h 2.116667 2.116666 v 8.46667 8.46667 h 6.35 6.35 v 2.11666 2.11667 h 6.349999 6.35 v 2.11667 2.11666 h 2.116667 2.116666 v -4.23333 -4.23333 h 6.35 6.349999 v -2.11667 -2.11667 h -2.116666 -2.116667 v -4.23333 -4.23333 h -2.116666 -2.116667 v -2.11667 -2.11667 h -2.116666 -2.116667 v -8.46666 -8.46667 h 4.233333 4.233333 v 2.11667 2.11666 h 2.116667 2.116666 v -2.11666 -2.11667 h 2.116667 2.116667 v -2.11667 -2.11666 h 2.116666 2.116667 v -4.23334 -4.23333 h -2.116667 -2.116666 v -2.11667 -2.11666 h -4.233334 -4.233333 v 2.11666 2.11667 h -2.116666 -2.116667 v 2.11667 2.11666 h -2.116666 -2.116667 v -2.11666 -2.11667 h -2.116666 -2.116667 v -2.11667 -2.11666 h 2.116667 2.116666 v -2.11667 -2.116665 h 2.116667 2.116666 v -2.116667 -2.116666 h 2.116667 2.116666 v -2.116667 -2.116666 h 4.233333 4.233334 v -2.116667 -2.116667 h 6.349999 6.35 v 2.116667 2.116667 h 2.116667 2.116666 v 2.116666 2.116667 h 2.116667 2.116666 v -2.116667 -2.116666 h 2.116667 2.116666 v -2.116667 -2.116667 h 6.35 6.35 v -2.116666 -2.116667 h 6.350001 6.35 v 2.116667 2.116666 h 2.11666 2.11667 v 2.116667 2.116667 h 2.11667 2.11666 v 2.116666 2.116667 h 2.11667 2.11667 v 2.116666 2.116667 h 2.11666 2.11667 v 4.233335 4.23333 h 2.11667 2.11666 v 2.11667 2.11666 h 2.11667 2.11667 v 4.23334 4.23333 h 2.11666 2.11667 v 2.11667 2.11666 h -2.11667 -2.11666 v 2.11667 2.11667 h -2.11667 -2.11667 v -2.11667 -2.11667 h -2.11666 -2.11667 v -2.11666 -2.11667 h -2.11667 -2.11666 v 6.35 6.35 h -2.11667 -2.11667 v 6.35 6.35 h -2.11666 -2.11667 v 2.11667 2.11666 h -2.11667 -2.11666 v 2.11667 2.11667 h 6.35 6.35 v 2.11666 2.11667 h 2.11666 2.11667 v 2.11667 2.11666 h -2.11667 -2.11666 v 2.11667 2.11666 h -4.23334 -4.23333 v 2.11667 2.11667 h 2.11667 2.11666 v 4.23333 4.23333 h 2.11667 2.11667 v 6.35 6.35 h 2.11666 2.11667 v -6.35 -6.35 h 19.05 19.05 v 6.35 6.35 h -4.23333 -4.23334 v 10.58334 10.58333 h -2.11666 -2.11667 v 2.11667 2.11666 h -2.11667 -2.11666 v 2.11667 2.11667 h -2.11667 -2.11667 v 2.11666 2.11667 h -12.7 -12.7 v -2.11667 -2.11666 h -2.11666 -2.11667 v -2.11667 -2.11667 h -4.23333 -4.23333 v 4.23334 4.23333 h 2.11666 2.11667 v 2.11667 2.11666 h 4.23333 4.23333 v 2.11667 2.11666 h 6.35 6.35 v 2.11667 2.11667 h 2.11667 2.11667 v 4.23333 4.23333 h -2.11667 -2.11667 v 2.11667 2.11667 h -6.35 -6.35 z"
       id="path856" /></g></svg>
